<?xml version="1.0" encoding="UTF-8" standalone="no"?>
<svg
   xmlns:dc="http://purl.org/dc/elements/1.1/"
   xmlns:cc="http://creativecommons.org/ns#"
   xmlns:rdf="http://www.w3.org/1999/02/22-rdf-syntax-ns#"
   xmlns:svg="http://www.w3.org/2000/svg"
   xmlns="http://www.w3.org/2000/svg"
   viewBox="0 0 1280 720"
   height="720"
   width="1280"
   xml:space="preserve"
   id="svg2"
   version="1.1"><metadata
     id="metadata8"><rdf:RDF><cc:Work
         rdf:about=""><dc:format>image/svg+xml</dc:format><dc:type
           rdf:resource="http://purl.org/dc/dcmitype/StillImage" /></cc:Work></rdf:RDF></metadata><defs
     id="defs6"><clipPath
       id="clipPath20"
       clipPathUnits="userSpaceOnUse"><path
         id="path18"
         d="M 0,1.206994e-5 H 959.76 V 540.00001 H 0 Z" /></clipPath></defs><g
     transform="matrix(1.3333333,0,0,-1.3333333,0,720)"
     id="g10"><g
       id="g12" /><g
       id="g14"><g
         clip-path="url(#clipPath20)"
         id="g16"><path
           id="path22"
           style="fill:#ffffff;fill-opacity:1;fill-rule:nonzero;stroke:none"
           d="M 0,540 H 959.76 V 1.206994e-5 H 0 Z" /></g></g><g
       id="g24"><path
         id="path26"
         style="fill:#ffffff;fill-opacity:1;fill-rule:nonzero;stroke:none"
         d="M 0,540 H 960 V 1.40816e-5 H 0 Z" /><path
         id="path28"
         style="fill:#406d7b;fill-opacity:1;fill-rule:evenodd;stroke:none"
         d="m 442.9358,408.9069 v -31.1746 l 48.5297,-48.4303 v -59.3021 h 47.7057 v 138.907 z m 42.7174,-42.6596 h -29.2069 v 26.0216 h 29.1891 v -26.0216 z m 40.0015,-70.7053 h -29.201 v 26.0394 h 29.201 z m 0,70.7053 h -29.201 v 26.0216 h 29.201 z" /><path
         id="path30"
         style="fill:#406d7b;fill-opacity:1;fill-rule:evenodd;stroke:none"
         d="m 421.3113,270 h 21.62457 v 21.96315 H 421.3113 Z" /><path
         id="path32"
         style="fill:#ffc000;fill-opacity:1;fill-rule:evenodd;stroke:none"
         d="m 390.0877,323.9485 v -53.9486 h 18.2491 v 34.8752 h 47.5735 v -34.8752 h 18.2492 v 53.9486 l -42.0389,41.9513 z" /><path
         id="path34"
         style="fill:#2e4d57;fill-opacity:1;fill-rule:evenodd;stroke:none"
         d="m 394.3659,226.5561 v -38.5065 h -8.2835 v 16.5733 h -17.5415 v -16.5733 h -8.2835 v 38.5065 h 8.2835 v -16.349 h 17.5415 v 16.349 z" /><path
         id="path36"
         style="fill:#2e4d57;fill-opacity:1;fill-rule:evenodd;stroke:none"
         d="m 446.9651,207.2994 c 0,-2.8146 -0.4874,-5.4217 -1.4619,-7.8269 -0.9746,-2.4109 -2.3609,-4.4853 -4.1534,-6.2346 -1.7808,-1.7493 -3.9212,-3.1285 -6.4271,-4.1265 -2.506,-1.0036 -5.2904,-1.5026 -8.3532,-1.5026 -3.0512,0 -5.824,0.499 -8.33,1.5026 -2.5059,0.998 -4.658,2.3772 -6.4505,4.1265 -1.7981,1.7493 -3.1904,3.8237 -4.1765,6.2346 -0.9746,2.4052 -1.4618,5.0123 -1.4618,7.8269 0,2.8089 0.4872,5.4104 1.4618,7.8045 0.9861,2.4053 2.3784,4.4853 4.1765,6.2345 1.7925,1.7494 3.9446,3.1173 6.4505,4.1041 2.506,0.998 5.2788,1.5026 8.33,1.5026 3.0628,0 5.8472,-0.5046 8.3532,-1.5026 2.5059,-0.9868 4.6463,-2.3659 6.4271,-4.1265 1.7925,-1.7661 3.1788,-3.8462 4.1534,-6.2345 0.9745,-2.3941 1.4619,-4.99 1.4619,-7.7821 z m -8.4228,0 c 0,2.0184 -0.2785,3.8236 -0.8353,5.4272 -0.5453,1.5979 -1.3343,2.9603 -2.3668,4.0817 -1.0209,1.1213 -2.2738,1.9736 -3.7588,2.5565 -1.4735,0.5944 -3.1441,0.8971 -5.0119,0.8971 -1.8563,0 -3.5268,-0.3027 -5.0119,-0.8971 -1.4849,-0.5829 -2.7496,-1.4352 -3.7821,-2.5565 -1.0383,-1.1214 -1.8331,-2.4838 -2.3899,-4.0817 -0.5453,-1.6036 -0.8121,-3.4088 -0.8121,-5.4272 0,-2.0352 0.2668,-3.8518 0.8121,-5.4497 0.5568,-1.6035 1.3516,-2.9603 2.3899,-4.0817 1.0325,-1.11 2.2972,-1.9623 3.7821,-2.5566 1.4851,-0.5999 3.1556,-0.897 5.0119,-0.897 1.8678,0 3.5384,0.2971 5.0119,0.897 1.485,0.5943 2.7379,1.4466 3.7588,2.5566 1.0325,1.1214 1.8215,2.4782 2.3668,4.0817 0.5568,1.5979 0.8353,3.4145 0.8353,5.4497 z" /><path
         id="path38"
         style="fill:#2e4d57;fill-opacity:1;fill-rule:evenodd;stroke:none"
         d="m 478.1655,207.6357 h 13.6666 v -15.878 c -2.0303,-1.4353 -4.1939,-2.4893 -6.4969,-3.1622 -2.2913,-0.6559 -4.7218,-0.9867 -7.2858,-0.9867 -3.2659,0 -6.23,0.4822 -8.8867,1.4577 -2.6626,0.9868 -4.9365,2.3548 -6.8218,4.1041 -1.8737,1.7605 -3.3296,3.8406 -4.3622,6.2346 -1.0209,2.4052 -1.5314,5.0348 -1.5314,7.8942 0,2.8818 0.4873,5.5225 1.4618,7.9166 0.9862,2.4053 2.3899,4.4741 4.1998,6.2121 1.8098,1.7326 3.9967,3.0837 6.5664,4.0593 2.564,0.9699 5.4412,1.4577 8.6315,1.4577 1.6534,0 3.1906,-0.129 4.6175,-0.3812 1.4213,-0.2579 2.7381,-0.6055 3.9446,-1.0541 1.2182,-0.4485 2.332,-0.9867 3.3413,-1.6146 1.0036,-0.6168 1.9141,-1.2953 2.7379,-2.041 l -2.39,-3.5433 c -0.3713,-0.572 -0.8527,-0.9196 -1.4385,-1.0541 -0.5743,-0.1234 -1.2065,0.028 -1.9028,0.4486 -0.667,0.3868 -1.3166,0.7288 -1.9489,1.0315 -0.6381,0.3141 -1.3111,0.5832 -2.0187,0.8074 -0.7135,0.2355 -1.4965,0.4149 -2.3436,0.5382 -0.8351,0.1178 -1.804,0.1794 -2.9003,0.1794 -1.8447,0 -3.5153,-0.3083 -5.0119,-0.9194 -1.5024,-0.6168 -2.7785,-1.4915 -3.8285,-2.6239 -1.0558,-1.1382 -1.8678,-2.5062 -2.4363,-4.1041 -0.5743,-1.5867 -0.8585,-3.3583 -0.8585,-5.3151 0,-2.125 0.3074,-4.0256 0.9281,-5.6964 0.6323,-1.6764 1.514,-3.0893 2.6451,-4.2386 1.1428,-1.1382 2.506,-2.0128 4.0838,-2.6239 1.5778,-0.5999 3.3412,-0.8971 5.2903,-0.8971 1.3109,0 2.4828,0.1233 3.5037,0.3813 1.0325,0.2523 2.0477,0.6055 3.0395,1.054 v 6.4813 h -4.5013 c -0.528,0 -0.9455,0.1345 -1.2531,0.4036 -0.2958,0.2691 -0.4407,0.6167 -0.4407,1.0541 z" /><path
         id="path40"
         style="fill:#2e4d57;fill-opacity:1;fill-rule:evenodd;stroke:none"
         d="m 525.3588,202.6718 -4.3158,11.7739 c -0.2495,0.6112 -0.5221,1.3345 -0.8121,2.1753 -0.2785,0.8356 -0.5511,1.7382 -0.8121,2.7138 -0.2494,-0.9868 -0.5221,-1.9062 -0.8121,-2.7585 -0.2784,-0.841 -0.5453,-1.5642 -0.789,-2.1753 l -4.2925,-11.7292 z m 13.8289,-14.6222 h -6.3807 c -0.7309,0 -1.3167,0.1626 -1.7634,0.4934 -0.4525,0.3252 -0.7832,0.7456 -0.9978,1.2559 l -2.6915,7.3559 h -15.8478 l -2.6915,-7.3559 c -0.1857,-0.4373 -0.5105,-0.841 -0.9746,-1.211 -0.4524,-0.3589 -1.0209,-0.5383 -1.717,-0.5383 h -6.4505 l 15.5461,38.5065 h 8.4459 z" /><path
         id="path42"
         style="fill:#2e4d57;fill-opacity:1;fill-rule:evenodd;stroke:none"
         d="m 559.3725,208.741 c 1.3285,0 2.4828,0.1627 3.4573,0.4935 0.9746,0.325 1.7693,0.7736 2.39,1.3454 0.6148,0.5664 1.0731,1.2391 1.3689,2.0185 0.29,0.7906 0.4409,1.6427 0.4409,2.5567 0,1.8221 -0.6265,3.2351 -1.8794,4.2386 -1.253,1.0148 -3.1674,1.525 -5.7311,1.525 h -4.2695 V 208.741 Z m 19.3051,-20.2737 h -7.4482 c -1.3922,0 -2.4016,0.5158 -3.0165,1.5474 l -7.5873,11.7965 c -0.3133,0.4597 -0.6497,0.7961 -1.021,1.0091 -0.3712,0.2075 -0.9281,0.3141 -1.6706,0.3141 h -2.7844 v -14.6671 h -8.2371 v 38.5065 h 12.5066 c 2.7843,0 5.1626,-0.2859 7.1465,-0.8521 1.978,-0.5551 3.5965,-1.3232 4.8494,-2.31 1.2646,-0.9867 2.1927,-2.1697 2.7844,-3.5435 0.5858,-1.3792 0.8816,-2.8874 0.8816,-4.5301 0,-1.2727 -0.1972,-2.4837 -0.5801,-3.633 -0.3711,-1.1382 -0.9165,-2.1756 -1.6241,-3.1174 -0.7135,-0.9308 -1.5951,-1.7605 -2.6452,-2.4894 -1.0383,-0.7176 -2.2217,-1.3008 -3.55,-1.7492 0.5221,-0.286 1.0093,-0.628 1.4618,-1.0316 0.4641,-0.3925 0.8816,-0.8523 1.2529,-1.3905 z" /><path
         id="path44"
         style="fill:#2e4d57;fill-opacity:1;fill-rule:evenodd;stroke:none"
         d="m 590.0763,188.0496 h 8.28346 v 38.50653 h -8.28346 z" /></g></g></svg>