<?xml version="1.0" encoding="utf-8"?>
<!-- Generator: Adobe Illustrator 25.4.1, SVG Export Plug-In . SVG Version: 6.00 Build 0)  -->
<svg version="1.1" id="Capa_1" xmlns="http://www.w3.org/2000/svg" xmlns:xlink="http://www.w3.org/1999/xlink" x="0px" y="0px"
	 viewBox="0 0 752.9 315.7" style="enable-background:new 0 0 752.9 315.7;" xml:space="preserve">
<style type="text/css">
	.st0{fill-rule:evenodd;clip-rule:evenodd;fill:#FFFFFF;}
	.st1{fill-rule:evenodd;clip-rule:evenodd;fill:#416E7C;}
	.st2{fill-rule:evenodd;clip-rule:evenodd;fill:#FCC00D;}
	.st3{fill-rule:evenodd;clip-rule:evenodd;fill:#2F4E58;}
</style>
<rect x="-33" y="-32.1" class="st0" width="819" height="380"/>
<g id="g10" transform="matrix(1.3333333,0,0,-1.3333333,0,720)">
	<g id="g12">
	</g>
	<g id="g24">
		<path id="path28" class="st1" d="M110.7,492.5v-31.2l48.5-48.4v-59.3h47.7v138.9H110.7z M153.4,449.9h-29.2v26h29.2V449.9
			L153.4,449.9z M193.4,379.1h-29.2v26h29.2V379.1z M193.4,449.9h-29.2v26h29.2V449.9z"/>
		<path id="path30" class="st1" d="M89.1,353.6h21.6v22H89.1V353.6z"/>
		<path id="path32" class="st2" d="M57.8,407.6v-53.9H76v34.9h47.7v-34.9h18.2v53.9l-42,42L57.8,407.6z"/>
		<path id="path34" class="st3" d="M280.5,440.5V402h-8.3v16.6h-17.5V402h-8.3v38.5h8.3v-16.3h17.5v16.3H280.5z"/>
		<path id="path36" class="st3" d="M333.1,421.2c0-2.8-0.5-5.4-1.5-7.8s-2.4-4.5-4.2-6.2s-3.9-3.1-6.4-4.1s-5.3-1.5-8.4-1.5
			s-5.8,0.5-8.3,1.5s-4.7,2.4-6.5,4.1s-3.2,3.8-4.2,6.2c-1,2.4-1.5,5-1.5,7.8s0.5,5.4,1.5,7.8c1,2.4,2.4,4.5,4.2,6.2
			s3.9,3.1,6.5,4.1c2.5,1,5.3,1.5,8.3,1.5c3.1,0,5.8-0.5,8.4-1.5c2.5-1,4.6-2.4,6.4-4.1c1.8-1.8,3.2-3.8,4.2-6.2
			C332.6,426.6,333.1,424,333.1,421.2z M324.7,421.2c0,2-0.3,3.8-0.8,5.4s-1.3,3-2.4,4.1c-1,1.1-2.3,2-3.8,2.6s-3.1,0.9-5,0.9
			s-3.5-0.3-5-0.9s-2.7-1.4-3.8-2.6c-1-1.1-1.8-2.5-2.4-4.1c-0.5-1.6-0.8-3.4-0.8-5.4s0.3-3.9,0.8-5.4c0.6-1.6,1.4-3,2.4-4.1
			s2.3-2,3.8-2.6s3.2-0.9,5-0.9c1.9,0,3.5,0.3,5,0.9s2.7,1.4,3.8,2.6c1,1.1,1.8,2.5,2.4,4.1C324.4,417.4,324.7,419.2,324.7,421.2z"
			/>
		<path id="path38" class="st3" d="M364.3,421.6H378v-15.9c-2-1.4-4.2-2.5-6.5-3.2s-4.7-1-7.3-1c-3.3,0-6.2,0.5-8.9,1.5
			s-4.9,2.4-6.8,4.1c-1.9,1.8-3.3,3.8-4.4,6.2c-1,2.4-1.5,5-1.5,7.9s0.5,5.5,1.5,7.9c1,2.4,2.4,4.5,4.2,6.2c1.8,1.7,4,3.1,6.6,4.1
			s5.4,1.5,8.6,1.5c1.7,0,3.2-0.1,4.6-0.4s2.7-0.6,3.9-1.1c1.2-0.4,2.3-1,3.3-1.6s1.9-1.3,2.7-2l-2.4-3.5c-0.4-0.6-0.9-0.9-1.4-1.1
			c-0.6-0.1-1.2,0-1.9,0.4s-1.3,0.7-1.9,1s-1.3,0.6-2,0.8c-0.7,0.2-1.5,0.4-2.3,0.5s-1.8,0.2-2.9,0.2c-1.8,0-3.5-0.3-5-0.9
			s-2.8-1.5-3.8-2.6c-1.1-1.1-1.9-2.5-2.4-4.1c-0.6-1.6-0.9-3.4-0.9-5.3c0-2.1,0.3-4,0.9-5.7s1.5-3.1,2.6-4.2s2.5-2,4.1-2.6
			s3.3-0.9,5.3-0.9c1.3,0,2.5,0.1,3.5,0.4s2,0.6,3,1.1v6.5H366c-0.5,0-0.9,0.1-1.3,0.4c-0.3,0.3-0.4,0.6-0.4,1.1L364.3,421.6z"/>
		<path id="path40" class="st3" d="M411.5,416.6l-4.3,11.8c-0.2,0.6-0.5,1.3-0.8,2.2c-0.3,0.8-0.6,1.7-0.8,2.7
			c-0.2-1-0.5-1.9-0.8-2.8c-0.3-0.8-0.5-1.6-0.8-2.2l-4.3-11.7H411.5z M425.4,402H419c-0.7,0-1.3,0.2-1.8,0.5s-0.8,0.7-1,1.3
			l-2.7,7.4h-15.8l-2.7-7.4c-0.2-0.4-0.5-0.8-1-1.2c-0.5-0.4-1-0.5-1.7-0.5h-6.5l15.5,38.5h8.4L425.4,402z"/>
		<path id="path42" class="st3" d="M445.5,422.7c1.3,0,2.5,0.2,3.5,0.5s1.8,0.8,2.4,1.3c0.6,0.6,1.1,1.2,1.4,2s0.4,1.6,0.4,2.6
			c0,1.8-0.6,3.2-1.9,4.2s-3.2,1.5-5.7,1.5h-4.3v-12.2h4.2V422.7z M464.8,402.4h-7.4c-1.4,0-2.4,0.5-3,1.5l-7.6,11.8
			c-0.3,0.5-0.6,0.8-1,1s-0.9,0.3-1.7,0.3h-2.8v-14.6h-8.2v38.5h12.5c2.8,0,5.2-0.3,7.1-0.9c2-0.6,3.6-1.3,4.8-2.3
			c1.3-1,2.2-2.2,2.8-3.5c0.6-1.4,0.9-2.9,0.9-4.5c0-1.3-0.2-2.5-0.6-3.6s-0.9-2.2-1.6-3.1s-1.6-1.8-2.6-2.5s-2.2-1.3-3.5-1.7
			c0.5-0.3,1-0.6,1.5-1s0.9-0.9,1.3-1.4L464.8,402.4z"/>
		<path id="path44" class="st3" d="M476.2,402h8.3v38.5h-8.3V402z"/>
	</g>
</g>
</svg>
